<svg xmlns="http://www.w3.org/2000/svg" id="e420e77d-8796-4a3d-a5ea-e1ddb2886f47" data-name="Layer 1" width="196" height="42" viewBox="0 0 196 42"><g id="ba8fa59d-dbac-4116-8e40-442062f08dcf" data-name="Page-1"><g id="aecf4ce6-2a48-404b-95ec-bb53e8405246" data-name="HR-Saas-LP-"><g id="a40fd563-f34a-4e38-a33e-b431ccfad93f" data-name="Group-14"><g id="aa66d3c6-0fec-4bd8-a2c4-81bdea87ba6e" data-name="Group-17"><rect id="f9fe70cb-191b-4841-91d3-01fe96036db1" data-name="Rectangle-Copy-9" width="196" height="42" style="fill:#d8d8d8;fill-opacity:0"></rect><rect x="58.5" y="23" width="8" height="3"></rect><path d="M46.95,22.3113l-.27-.0009q-.7806-.0057-1.2259-.0453-.5195-.0464-.8344-.108.0315.432.1259,1.62t.0945,3.6872q0,.6789-.0157,1.2343a6.8158,6.8158,0,0,1-.0788.9256,2.1455,2.1455,0,0,1-.5981.2314,6.93,6.93,0,0,1-.8973.17q-.4881.0617-1.0075.1079t-.9288.0463a7.7174,7.7174,0,0,1-3.2429-.6479,6.77,6.77,0,0,1-2.3928-1.8051,8.1409,8.1409,0,0,1-1.4955-2.7307,10.8675,10.8675,0,0,1-.5195-3.425,11.8188,11.8188,0,0,1,.6927-4.2426,9.2081,9.2081,0,0,1,1.81-3.0084,7.45,7.45,0,0,1,5.4311-2.4068,7.4219,7.4219,0,0,1,3.6836.8486A7.7785,7.7785,0,0,1,47.8,14.9986h.4408a15.6573,15.6573,0,0,1,.3935-1.5736q.2361-.7715.488-1.5737a17.07,17.07,0,0,0-3.4475-1.373A15.8032,15.8032,0,0,0,41.5345,10a17.38,17.38,0,0,0-5.1634.7405,11.775,11.775,0,0,0-4.14,2.2062,10.1366,10.1366,0,0,0-2.7391,3.6718A12.4269,12.4269,0,0,0,28.5,21.756a9.3624,9.3624,0,0,0,3.5105,7.5133,11.4494,11.4494,0,0,0,3.9355,2.0364,17.0834,17.0834,0,0,0,4.99.6943,26.6259,26.6259,0,0,0,4.2031-.3394,36.9112,36.9112,0,0,0,4.2032-.9257,5.41,5.41,0,0,1-.0787-.9411q-.0158-.6633-.0158-1.4347V27.3408q0-.7405.0158-1.5582t.0472-1.5428q.0315-.7251.0787-1.28a5.5017,5.5017,0,0,1,.11-.8023,8.4253,8.4253,0,0,1-.8658.108Q48.0831,22.3115,46.95,22.3113Z" transform="translate(0 0)"></path><path d="M90.5,10q-.9649.0306-1.79.0612t-1.6965.0458q-.8715.0153-1.9144.0306t-2.5058.0152l-.4094,0q-1.2026-.0018-2.0965-.0149-1.0428-.0153-1.93-.0306t-1.7432-.0458Q75.5583,10.0306,74.5,10q.0623.3363.1089.6725a4.8655,4.8655,0,0,1,0,1.345q-.0467.3361-.1089.6724.6848-.0916,1.4941-.168T77.5817,12.4q.7782-.0457,1.463-.0764t1.1518-.03a7.3852,7.3852,0,0,1,.0779,1.07q.0155.7337.0155,1.62v7.642q0,2.5371-.0623,4.5087T80.0408,31a10.0631,10.0631,0,0,1,1.1518-.0612h2.8015A10.0594,10.0594,0,0,1,85.1459,31q-.1245-1.8953-.1867-3.8668t-.0623-4.5087V13.3624q0-.3667.0156-.6419a3.1612,3.1612,0,0,1,.0467-.4279q.4668,0,1.1517.03t1.4474.0764q.7627.0459,1.5409.1224T90.5,12.69q-.0623-.3361-.1089-.6724a4.8655,4.8655,0,0,1,0-1.345Q90.4378,10.3362,90.5,10Z" transform="translate(0 0)"></path><path d="M167.2532,22.6245l.001-4.7827q.0068-2.1581.0607-3.8833.0618-1.9716.1851-3.9585-.5242.0612-1.1412.107t-1.388.0458q-.7711,0-1.388-.0458T162.4416,10q.1233,1.9869.185,3.9279t.0617,4.4782q-.8944.0306-1.9432.0459-.8156.0118-2.0044.0145l-1.5089,0q-1.148-.0028-1.9924-.0143-1.1257-.0153-1.9277-.0459,0-2.5371.0463-4.4782T153.5585,10q-.5244.0612-1.1413.107t-1.388.0458q-.7712,0-1.388-.0458T148.5,10q.1234,1.9869.1851,3.9585t.0617,4.5087v4.1573q0,2.5371-.0617,4.5087T148.5,31a9.8776,9.8776,0,0,1,1.1412-.0612h2.776A9.8794,9.8794,0,0,1,153.5585,31q-.1235-1.8953-.1851-3.8668t-.0617-4.5087V20.8821q1.1721-.0612,2.3441-.0917T158,20.76q1.1721,0,2.3442.0459t2.3441.0764v1.7424q0,2.5371-.0617,4.5087T162.4416,31a9.8776,9.8776,0,0,1,1.1412-.0612h2.776A9.8776,9.8776,0,0,1,167.5,31q-.1233-1.8953-.1851-3.8668T167.2532,22.6245Z" transform="translate(0 0)"></path><path d="M127.6281,14.1655a6.4917,6.4917,0,0,1,2.2014-1.6971,5.7539,5.7539,0,0,1,2.4109-.5554,5.9467,5.9467,0,0,1,2.8153.6326,7.4456,7.4456,0,0,1,2.3361,2.1136h.4194a12.165,12.165,0,0,1,.2246-1.5891,9.92,9.92,0,0,1,.4642-1.5582,7.6062,7.6062,0,0,0-1.2429-.5862,13.604,13.604,0,0,0-1.5424-.4783,16.7735,16.7735,0,0,0-1.6772-.324A11.7276,11.7276,0,0,0,132.39,10a15.6345,15.6345,0,0,0-4.5225.6479A10.2675,10.2675,0,0,0,124.079,12.7a9.9379,9.9379,0,0,0-2.6056,3.641,13.627,13.627,0,0,0-.9734,5.446,10.9174,10.9174,0,0,0,.7488,4.0729A9.1828,9.1828,0,0,0,123.42,29.115a9.8091,9.8091,0,0,0,3.4741,2.129,13.4083,13.4083,0,0,0,4.6573.756,13.1393,13.1393,0,0,0,6.11-1.2651,7.7386,7.7386,0,0,1,.24-1.3113q.18-.6634.4193-1.3114l-.3893-.2468a6.1628,6.1628,0,0,1-1.1232.9565,7.57,7.57,0,0,1-1.3627.7251,9.3566,9.3566,0,0,1-1.4676.4628,6.6281,6.6281,0,0,1-1.4675.17,7.0336,7.0336,0,0,1-2.5607-.4936,6.18,6.18,0,0,1-2.2763-1.5583,8.0667,8.0667,0,0,1-1.6322-2.7461,11.6132,11.6132,0,0,1-.629-4.0575,13.0207,13.0207,0,0,1,.614-4.2426A8.7993,8.7993,0,0,1,127.6281,14.1655Z" transform="translate(0 0)"></path><path d="M109.0969,10.107q-1.7829.0459-4.0775.0458-1.3953,0-2.76-.0611T99.5,10q.1241,1.9869.186,3.9585t.062,4.5087v4.1573q0,2.5371-.062,4.5087T99.5,31q.2481-.0306.6047-.0458t1.0542-.0154h4.9148q2.1394,0,3.3643.0154T111.5,31a2.2444,2.2444,0,0,1-.093-.4585,9.4349,9.4349,0,0,1,0-1.5284q.0311-.2751.093-.6114-1.7985.214-3.5659.3057t-3.5349.0917q-.093-1.8341-.093-3.821,0-.9782.0155-1.9562t.0155-1.9564q3.504,0,7.0388.2751-.062-.4891-.1085-.7489a2.8614,2.8614,0,0,1-.0466-.5044,5.1828,5.1828,0,0,1,.0311-.5808q.0309-.2751.124-.7947-1.7675.0916-3.3953.1528t-3.6435.0918q0-1.6813.0155-3.3319t.1395-3.3319q.3413,0,1.1473.03t1.814.0918q1.0077.0611,2.0775.1222t1.969.1223q-.062-.3363-.093-.6114a7.23,7.23,0,0,1-.031-.7642A5.3908,5.3908,0,0,1,111.5,10Q110.88,10.0612,109.0969,10.107Z" transform="translate(0 0)"></path></g></g></g></g></svg>