<svg xmlns="http://www.w3.org/2000/svg" id="f2d1f400-1916-44e4-9437-8667c0914e93" data-name="Layer 1" width="53.5" height="47.5" viewBox="0 0 53.5 47.5"><path d="M49.8721,40.0791a4.87,4.87,0,0,1-1.2325-.5039,5.0808,5.0808,0,0,0,1.8907-3.919V33.458a5.54,5.54,0,0,0-11.0606,0v2.1982l.0017.0289L27.75,28.0112V19.75h6.6787A1.3042,1.3042,0,0,0,35.75,18.4668V16.6157c0-3.2842-2.4268-4.0678-3.8779-4.5366a4.8924,4.8924,0,0,1-1.2315-.5039,5.0815,5.0815,0,0,0,1.89-3.919V5.4585A5.3824,5.3824,0,0,0,27,.25a5.3827,5.3827,0,0,0-5.53,5.2085V7.6562a5.08,5.08,0,0,0,1.89,3.919,4.8789,4.8789,0,0,1-1.231.5039c-1.4507.4683-3.8784,1.252-3.8784,4.5366v1.8511A1.3042,1.3042,0,0,0,19.5713,19.75H26.25v8.8516l-11.72,6.665V33.458A5.3823,5.3823,0,0,0,9,28.25a5.3823,5.3823,0,0,0-5.53,5.208v2.1982a5.08,5.08,0,0,0,1.89,3.919,4.8594,4.8594,0,0,1-1.231.5039C2.6782,40.5469.25,41.33.25,44.6152v1.8516A1.3039,1.3039,0,0,0,1.5713,47.75H16.4287A1.3039,1.3039,0,0,0,17.75,46.4668V44.6152c0-3.2851-2.4282-4.0683-3.8784-4.5361a4.8572,4.8572,0,0,1-1.2315-.5039,5.18,5.18,0,0,0,1.6586-2.4507L27.48,29.6281,39.9617,37.8A5.2522,5.2522,0,0,0,41.36,39.5752a4.91,4.91,0,0,1-1.2325.5039c-1.45.4678-3.8779,1.251-3.8779,4.5361v1.8516A1.3039,1.3039,0,0,0,37.5713,47.75H52.4287A1.3039,1.3039,0,0,0,53.75,46.4668V44.6152C53.75,41.33,51.3223,40.5469,49.8721,40.0791ZM19.75,16.6157c0-2.1924,1.4434-2.6582,2.8394-3.1089,1.1176-.3613,2.2739-.7348,2.4633-2.061l.0684-.4785-.4082-.26A3.638,3.638,0,0,1,22.97,7.6562V5.4585A3.8839,3.8839,0,0,1,27,1.75a3.8836,3.8836,0,0,1,4.03,3.7085V7.6562a3.6368,3.6368,0,0,1-1.7432,3.0508l-.4082.26.0684.479c.1894,1.3262,1.3457,1.7,2.4648,2.061,1.3945.4507,2.8379.9165,2.8379,3.1089V18.25H19.75Zm-8.8027,22.83c.1894,1.3272,1.3452,1.7,2.4638,2.0615,1.3955.45,2.8389.9151,2.8389,3.1084V46.25H1.75V44.6152c0-2.1933,1.4434-2.6582,2.8394-3.1084,1.1181-.3613,2.2739-.7343,2.4633-2.0615l.0679-.4785-.4077-.26A3.6393,3.6393,0,0,1,4.97,35.6562V33.458A3.8835,3.8835,0,0,1,9,29.75a3.8835,3.8835,0,0,1,4.03,3.708v2.1982a3.393,3.393,0,0,1-.0368.4844l-.3641.2071.2188.3851a3.7523,3.7523,0,0,1-1.5611,1.9742l-.4077.26ZM52.25,46.25H37.75V44.6152c0-2.1933,1.4434-2.6582,2.8389-3.1084,1.1181-.3613,2.2754-.7353,2.4638-2.0615l.0684-.4785-.4072-.26a3.8036,3.8036,0,0,1-1.4089-1.59l.1061-.1621-.236-.1545a3.4112,3.4112,0,0,1-.2054-1.1444V33.458a4.0443,4.0443,0,0,1,8.0606,0v2.1982a3.6391,3.6391,0,0,1-1.7442,3.0508l-.4072.26.0684.4785c.1884,1.3262,1.3457,1.7,2.4638,2.0615,1.3955.45,2.8389.9151,2.8389,3.1084Z" transform="translate(-0.25 -0.25)"></path></svg>