<svg xmlns="http://www.w3.org/2000/svg" id="ec78b3b3-ced0-43f9-80c7-d9b7efcaf9cd" data-name="Layer 1" width="54.5" height="52" viewBox="0 0 54.5 52"><path d="M32.0459,29.0146c-1.1387-.3925-1.6133-.6162-1.8135-.94a6.683,6.683,0,0,0,2.4932-5.1992V19.9443a6.7254,6.7254,0,0,0-13.4507,0V22.875a6.6825,6.6825,0,0,0,2.4927,5.1992c-.2007.3242-.6748.5479-1.8145.94-1.7593.6065-4.7031,1.62-4.7031,5.8057v2.4688A1.4641,1.4641,0,0,0,16.7144,38.75H35.2861A1.4637,1.4637,0,0,0,36.75,37.2891V34.82C36.75,30.6348,33.8066,29.6211,32.0459,29.0146ZM35.25,37.25l-18.5.0391V34.82c0-3.1152,1.9614-3.791,3.6929-4.3877,1.4-.4824,2.7226-.9385,2.938-2.5459l.0615-.459L23.06,27.167a5.1919,5.1919,0,0,1-2.2847-4.292V19.9443a5.2254,5.2254,0,0,1,10.4507,0V22.875A5.1935,5.1935,0,0,1,28.94,27.167l-.3828.2607.0615.459c.2149,1.6084,1.5381,2.0635,2.9405,2.5469,1.7295.5957,3.69,1.2715,3.69,4.3867Z"></path><path d="M50.44,17.0762l-.7422.3017A8.5022,8.5022,0,0,1,39.4873,4.6953l.4541-.66L39.252,3.626a25.96,25.96,0,1,0,11.44,14.2114Zm-7.1162,26.248A24.5,24.5,0,0,1,8.6758,8.6758,24.5145,24.5145,0,0,1,37.8184,4.5337a10.0053,10.0053,0,0,0,11.68,14.5088,24.5406,24.5406,0,0,1-6.1738,24.2817Z"></path><path d="M47.5,2a7,7,0,1,0,7,7A7.0081,7.0081,0,0,0,47.5,2Zm0,12.5A5.5,5.5,0,1,1,53,9,5.5066,5.5066,0,0,1,47.5,14.5Z"></path><polygon points="48.073 6.8 46.927 6.8 46.927 8.404 45.3 8.404 45.3 9.464 46.927 9.464 46.927 11.2 48.073 11.2 48.073 9.464 49.7 9.464 49.7 8.404 48.073 8.404 48.073 6.8"></polygon></svg>