<svg xmlns="http://www.w3.org/2000/svg" id="b31548ab-7a84-4364-84c6-fb275b9e8f2d" data-name="Layer 1" width="196" height="42" viewBox="0 0 196 42"><rect width="196" height="42" style="opacity:0"></rect><path d="M40.485,7.625H18.035v22.45h4.2v4.3h22.44V11.935h-4.19Zm-18.25,20.26h-2.01V9.815h18.07v2.12H22.235Zm20.26-13.77v18.08H24.415V14.115h18.08Z"></path><path d="M68.535,21.705a23.4593,23.4593,0,0,0-2.93-.88,26.229,26.229,0,0,1-2.59-.76,4.21,4.21,0,0,1-1.6-1,2.47,2.47,0,0,1-.64-1.78,2.92,2.92,0,0,1,1.19-2.4,5.6,5.6,0,0,1,3.5-.93,8.3207,8.3207,0,0,1,2.37.36,7.54,7.54,0,0,1,2.2,1l.45-1a8,8,0,0,0-2.31-1.1,9.2606,9.2606,0,0,0-2.71-.4,8.1507,8.1507,0,0,0-3.3.59,4.4193,4.4193,0,0,0-2,1.61,4,4,0,0,0-.64,2.22,3.54,3.54,0,0,0,.77,2.39,4.6,4.6,0,0,0,1.93,1.32,24.2254,24.2254,0,0,0,2.94.88,22.9511,22.9511,0,0,1,2.57.74,4.3507,4.3507,0,0,1,1.59,1,2.47,2.47,0,0,1,.64,1.79,2.78,2.78,0,0,1-1.21,2.35,5.92,5.92,0,0,1-3.59.91,8.6912,8.6912,0,0,1-3.13-.58,6.5094,6.5094,0,0,1-2.46-1.52l-.54.91a6.8105,6.8105,0,0,0,2.62,1.63,9.6708,9.6708,0,0,0,3.53.69,8.19,8.19,0,0,0,3.33-.6,4.31,4.31,0,0,0,2-1.59,3.93,3.93,0,0,0,.66-2.21,3.38,3.38,0,0,0-.78-2.35A4.7606,4.7606,0,0,0,68.535,21.705Z"></path><polygon points="95.035 27.925 89.825 12.915 88.665 12.915 83.455 27.915 78.385 12.915 77.105 12.915 82.765 29.565 84.035 29.565 89.235 14.625 94.395 29.565 95.685 29.565 101.315 12.915 100.145 12.925 95.035 27.925"></polygon><rect x="108.625" y="12.915" width="1.21" height="16.65"></rect><path d="M129.565,13.625a9.11,9.11,0,0,0-3.88-.71h-7.21v16.65h3.86v-4.59h3.35a9.27,9.27,0,0,0,3.84-.73,5.59,5.59,0,0,0,2.51-2.09,5.7591,5.7591,0,0,0,.88-3.2,5.72,5.72,0,0,0-.88-3.21A5.649,5.649,0,0,0,129.565,13.625Zm-1.41,7.43v.03a4.07,4.07,0,0,1-2.64.72h-3.14v-5.78h3.14a4.07,4.07,0,0,1,2.64.75,2.63,2.63,0,0,1,.9,2.15A2.62,2.62,0,0,1,128.155,21.055Z"></path><path d="M153.025,22.155a5.61,5.61,0,0,0,.89-3.2,5.72,5.72,0,0,0-.88-3.21,5.6,5.6,0,0,0-2.49-2.09,9.0694,9.0694,0,0,0-3.84-.74h-7.21v16.65h3.86v-4.64h3.54l3.21,4.64h4.12l-3.73-5.35A5.65,5.65,0,0,0,153.025,22.155Zm-3.92-1.06a4,4,0,0,1-2.64.76h-3.14v-5.8h3.14a4.05,4.05,0,0,1,2.64.75h.03a2.63,2.63,0,0,1,.87,2.15A2.65,2.65,0,0,1,149.105,21.095Z"></path><path d="M176.775,16.825a8.48,8.48,0,0,0-3.26-3.08,10.3,10.3,0,0,0-9.34,0,8.3405,8.3405,0,0,0-3.26,3.08,8.45,8.45,0,0,0-1.17,4.41,8.27,8.27,0,0,0,4.43,7.5v-.03a10.38,10.38,0,0,0,9.34,0,8.5492,8.5492,0,0,0,3.26-3.08,8.7294,8.7294,0,0,0,0-8.8Zm-3.39,7.17a4.85,4.85,0,0,1-1.87,1.89v.04a5.56,5.56,0,0,1-5.33,0,4.8307,4.8307,0,0,1-1.86-1.89,5.48,5.48,0,0,1-.68-2.76,5.48,5.48,0,0,1,.68-2.76,4.9,4.9,0,0,1,1.86-1.89,5.64,5.64,0,0,1,5.33,0,4.92,4.92,0,0,1,1.87,1.85,5.9412,5.9412,0,0,1,0,5.52Z"></path></svg>