<svg xmlns="http://www.w3.org/2000/svg" id="bedb8e95-167b-473a-8948-aa7aeb4d9d29" data-name="Layer 1" width="196" height="42" viewBox="0 0 196 42"><g id="e6efa8d1-6fdc-41fb-bfac-cf38f78a53ab" data-name="Page-1"><g id="bb330d79-3acb-4382-857f-4d9196a0561e" data-name="HR-Saas-LP-"><g id="acc19fc7-0a5b-46eb-ade0-71334ffca968" data-name="Group-14"><g id="f19a1ca7-4862-4f6f-ac9c-c623fe056eb9" data-name="Group-15"><rect id="b4985013-590e-48e2-9925-4bfd1d716aa4" data-name="Rectangle-Copy-8" width="196" height="42" style="fill:#d8d8d8;opacity:0"></rect><rect x="26" y="9.5" width="7" height="21.9249"></rect><rect x="13" y="16.516" width="7" height="14.9089"></rect><rect y="22.655" width="7" height="8.77"></rect><path d="M64.1542,11.6027a14.0424,14.0424,0,0,0-12.3084,0,10.8059,10.8059,0,0,0-4.2879,3.9285A10.4909,10.4909,0,0,0,46,21.1823a10.49,10.49,0,0,0,1.5579,5.6511,10.8054,10.8054,0,0,0,4.2879,3.9286,14.0433,14.0433,0,0,0,12.3084,0,10.8054,10.8054,0,0,0,4.2879-3.9286A10.49,10.49,0,0,0,70,21.1823a10.4909,10.4909,0,0,0-1.5579-5.6511A10.8059,10.8059,0,0,0,64.1542,11.6027Zm-.9478,12.7146a5.547,5.547,0,0,1-2.1588,2.115,6.5669,6.5669,0,0,1-6.0952,0,5.5477,5.5477,0,0,1-2.1588-2.115A6.122,6.122,0,0,1,52,21.1823a6.122,6.122,0,0,1,.7936-3.135,5.5477,5.5477,0,0,1,2.1588-2.115,6.5669,6.5669,0,0,1,6.0952,0,5.547,5.547,0,0,1,2.1588,2.115A6.122,6.122,0,0,1,64,21.1823,6.122,6.122,0,0,1,63.2064,24.3173Z" transform="translate(0 -0.25)"></path><path d="M157.49,10.1823l-9.49,21h6.2039l1.6892-4.08h9.0909l1.6892,4.08H173l-9.5209-21Zm-.49,13,3-7,3,7Z" transform="translate(0 -0.25)"></path><polygon points="189.975 9.932 184.767 18.272 179.558 9.932 173 9.932 181.378 23.312 181.378 30.932 187.591 30.932 187.591 23.402 196 9.932 189.975 9.932"></polygon><polygon points="100 14.642 106.515 14.642 106.515 30.932 112.515 30.932 112.515 14.642 119 14.642 119 9.932 100 9.932 100 14.642"></polygon><path d="M142.4651,21.9273a7.1339,7.1339,0,0,0,1.1008-3.975,7.2238,7.2238,0,0,0-1.1783-4.125,7.5319,7.5319,0,0,0-3.3488-2.7,12.7425,12.7425,0,0,0-5.1163-.945H124v21H130.14v-5.58h3.3489l3.938,5.58H144l-4.6822-6.6A7.375,7.375,0,0,0,142.4651,21.9273Zm-5.3964-1.5206a4.2332,4.2332,0,0,1-2.764.7756H131v-6h3.3047a4.1774,4.1774,0,0,1,2.764.79A2.7575,2.7575,0,0,1,138,18.197,2.7141,2.7141,0,0,1,137.0687,20.4067Z" transform="translate(0 -0.25)"></path><path d="M83.9847,15.8939a6.2981,6.2981,0,0,1,3.1072-.7555,6.374,6.374,0,0,1,5.051,2.478L96,14.1713A10.1757,10.1757,0,0,0,92.0817,11.21a13.1235,13.1235,0,0,0-5.296-1.0275A12.8167,12.8167,0,0,0,80.74,11.5875,10.5473,10.5473,0,0,0,75,21.1823a10.5473,10.5473,0,0,0,5.74,9.5948,12.8155,12.8155,0,0,0,6.0459,1.4052,13.1235,13.1235,0,0,0,5.296-1.0275A10.1747,10.1747,0,0,0,96,28.1933l-3.8571-3.4451a6.3738,6.3738,0,0,1-5.051,2.4781,6.2992,6.2992,0,0,1-3.1072-.7555A5.2759,5.2759,0,0,1,81.8724,24.34a6.4887,6.4887,0,0,1-.75-3.158,6.4883,6.4883,0,0,1,.75-3.1579A5.2753,5.2753,0,0,1,83.9847,15.8939Z" transform="translate(0 -0.25)"></path></g></g></g></g></svg>