<svg xmlns="http://www.w3.org/2000/svg" id="b574644d-345c-4806-9b42-097a5079e1e1" data-name="Layer 1" width="196" height="42" viewBox="0 0 196 42"><g id="fe5aa03d-20d7-42d6-860c-979bf25731ec" data-name="Page-1"><g id="bb02db1d-57dd-45ca-a9c3-854104d17e13" data-name="HR-Saas-LP-"><g id="bb564abe-bf60-459d-a5c0-a2bc7bd07dd5" data-name="Group-14"><g id="a66dfacb-3da3-41cf-97a2-a34fde1c0675" data-name="Group-19"><rect id="e71ae53a-defd-4c6f-b37c-585208374f1a" data-name="Rectangle-Copy-11" width="196" height="42" style="fill:#d8d8d8;fill-opacity:0"></rect><path d="M154.2511,26a6.1236,6.1236,0,0,0,4.222-1.4625,8.0725,8.0725,0,0,0,2.3385-3.51l-.5336-.1755a4.6068,4.6068,0,0,1-3.7982,1.96,3.28,3.28,0,0,1-2.5583-1.1993,6.0617,6.0617,0,0,1-1.0516-4.0073q0-.702.0315-1.053H161Q161,10,155.0673,10a8.3884,8.3884,0,0,0-5.8543,2.0037Q147,14.0073,147,18.0146q0,4.1829,1.9776,6.0841A7.2891,7.2891,0,0,0,154.2511,26Zm1.0233-15q.8959,0,1.3267,1.4011A11.8688,11.8688,0,0,1,156.9974,16H153Q153.3446,11,155.2744,11Z" style="fill-rule:evenodd"></path><path d="M140,26v-.6445a1.6382,1.6382,0,0,1-1.3408-.4757,2.8578,2.8578,0,0,1-.3852-1.734V2a28.0887,28.0887,0,0,1-5.3631.43q-.9553,0-1.9109-.0921v.6445a1.4331,1.4331,0,0,1,1.3408.6445,4.1656,4.1656,0,0,1,.3852,2.0563V23.1458a2.8578,2.8578,0,0,1-.3852,1.734A1.6382,1.6382,0,0,1,131,25.3555V26q3.5752-.1227,4.6233-.1227T140,26Z" style="fill-rule:evenodd"></path><path d="M118.4978,26a6.0366,6.0366,0,0,0,4.1845-1.4625A8.08,8.08,0,0,0,125,21.0274l-.5289-.1755a4.5533,4.5533,0,0,1-3.7644,1.96,3.6371,3.6371,0,0,1-2.7689-1.1993,5.7946,5.7946,0,0,1-1.12-4.0073,12.6683,12.6683,0,0,1,.8088-4.7532,2.8458,2.8458,0,0,1,2.8-2.0036,2.0205,2.0205,0,0,1,1.2444.351,3.5177,3.5177,0,0,0-1.82,1.0676,2.679,2.679,0,0,0-.7311,1.8574,2.5051,2.5051,0,0,0,.7622,1.9159,2.9437,2.9437,0,0,0,2.1.7166,2.9774,2.9774,0,0,0,2.1467-.8043,2.695,2.695,0,0,0,.84-2.0329,3.2754,3.2754,0,0,0-.4978-1.7843,3.59,3.59,0,0,0-1.3689-1.2578,6.8151,6.8151,0,0,0-1.7578-.6288A10.4042,10.4042,0,0,0,118.9955,10a8.268,8.268,0,0,0-5.8021,2.0037Q111,14.0073,111,18.0146q0,4.1829,2.0533,6.0841A7.6954,7.6954,0,0,0,118.4978,26Z" style="fill-rule:evenodd"></path><path d="M41.02,26v-.5932a5.052,5.052,0,0,1-2.1146-.6526,2.1208,2.1208,0,0,1-.8181-1.4089,18.794,18.794,0,0,1-.1852-3.1588V6.928L46.6075,25.97h.4939l7.44-18.2711V22.856a5.1575,5.1575,0,0,1-.1852,1.6313,1.088,1.088,0,0,1-.6946.6822,6.3831,6.3831,0,0,1-1.6207.2373V26q1.76-.089,5.495-.089,3.5811,0,5.4642.089v-.5932a4.8306,4.8306,0,0,1-1.42-.2373,1.0531,1.0531,0,0,1-.602-.6822,5.5971,5.5971,0,0,1-.17-1.6313V8.144a6.1357,6.1357,0,0,1,.1543-1.6313,1.0039,1.0039,0,0,1,.602-.6822A5.0289,5.0289,0,0,1,63,5.5932V5q-1.8831.089-5.4642.089H54.85L49.7872,17.606,43.9526,5q-2.6859.089-6.39.089Q35.9261,5.089,35,5v.5932a4.8306,4.8306,0,0,1,1.42.2373,1.0531,1.0531,0,0,1,.602.6822,5.5971,5.5971,0,0,1,.17,1.6313V20.78a16.9584,16.9584,0,0,1-.1543,2.67,2.2756,2.2756,0,0,1-.6175,1.32,3.0005,3.0005,0,0,1-1.42.6378V26q.9261-.089,2.5623-.089Q39.7541,25.911,41.02,26Z" style="fill-rule:evenodd"></path><path d="M94.9016,25.88q1.072,0,4.2888.09a6.3762,6.3762,0,0,0,.6739.03v-.63a3.0913,3.0913,0,0,1-2.0372-.5253,2.51,2.51,0,0,1-.5974-1.9362V13.9025a2.7215,2.7215,0,0,1,.5208-1.6061,3.0369,3.0369,0,0,1,1.2867-1.0656,2.2,2.2,0,0,1,.98-.21,3.174,3.174,0,0,0-1.5624,2.7918,1.9431,1.9431,0,0,0,.7046,1.576,3.0866,3.0866,0,0,0,2.0219.5854,2.7282,2.7282,0,0,0,2.0372-.7956A2.93,2.93,0,0,0,104,13.0319a3.5118,3.5118,0,0,0-.6586-2.1313,2.4961,2.4961,0,0,0-2.16-.9006A4.09,4.09,0,0,0,97.23,12.2514V10.09a28.35,28.35,0,0,1-5.33.42q-.9191,0-1.8994-.09v.63a1.4317,1.4317,0,0,1,1.3326.63,4.0185,4.0185,0,0,1,.3829,2.0113v9.516a2.76,2.76,0,0,1-.3829,1.696A1.643,1.643,0,0,1,90,25.37V26a5.5165,5.5165,0,0,0,.6433-.03Q93.9519,25.88,94.9016,25.88Z" style="fill-rule:evenodd"></path><path d="M77.2511,26a6.1236,6.1236,0,0,0,4.222-1.4625,8.0725,8.0725,0,0,0,2.3385-3.51l-.5336-.1755a4.6069,4.6069,0,0,1-3.7982,1.96,3.28,3.28,0,0,1-2.5583-1.1993A6.0617,6.0617,0,0,1,75.87,17.6051q0-.702.0315-1.053H84Q84,10,78.0673,10a8.3884,8.3884,0,0,0-5.8543,2.0037Q70,14.0073,70,18.0146q0,4.1829,1.9776,6.0841A7.2891,7.2891,0,0,0,77.2511,26Zm.0233-15q.896,0,1.3267,1.4011A11.8688,11.8688,0,0,1,78.9974,16H75Q75.3446,11,77.2744,11Z" style="fill-rule:evenodd"></path><rect x="35" y="36.315" width="126" height="2"></rect></g></g></g></g></svg>