<svg xmlns="http://www.w3.org/2000/svg" id="eda4d112-3471-47aa-9b85-ebfa2b8fff46" data-name="Layer 1" width="196" height="42" viewBox="0 0 196 42"><g id="f3d1cd61-813d-4993-b720-ddad8404615e" data-name="Page-1"><g id="fc704875-e887-4aa4-8341-bb4f468b5696" data-name="HR-Saas-LP-"><g id="a5b3e7a8-0a08-4ae2-b3db-458c38f955ed" data-name="Group-14"><g id="a748aa22-3e1c-41a8-8cee-ce51d4dba584" data-name="Group-18"><rect id="fbcd5cf7-2b0a-49ae-b7d4-e53c748c8fc7" data-name="Rectangle-Copy-10" width="196" height="42" style="fill:#d8d8d8;fill-opacity:0"></rect><rect x="15" y="7.51" width="29" height="6"></rect><rect x="15" y="17.51" width="29" height="6"></rect><rect x="15" y="27.51" width="29" height="6"></rect><polygon points="175.245 7.74 175.245 20.07 172.875 7.74 167.565 7.74 167.565 33.51 172.605 33.51 172.605 20.61 175.185 33.51 180.225 33.51 180.225 7.74 175.245 7.74"></polygon><polygon points="154.455 22.59 159.315 22.59 159.315 17.73 154.455 17.73 154.455 12.72 159.525 12.72 159.525 7.74 149.205 7.74 149.205 33.51 159.855 33.51 159.855 28.5 154.455 28.5 154.455 22.59"></polygon><path d="M106.395,7.5a6.2544,6.2544,0,0,0-4.74,1.695,7.0121,7.0121,0,0,0-1.62,5.025V26.49a8.023,8.023,0,0,0,1.62,5.355,6.8691,6.8691,0,0,0,9.48.015,8.012,8.012,0,0,0,1.62-5.37V14.22a7.0121,7.0121,0,0,0-1.62-5.025A6.2544,6.2544,0,0,0,106.395,7.5Zm1.17,19.23a4.6739,4.6739,0,0,1-.24,1.68.9118.9118,0,0,1-.93.6.9964.9964,0,0,1-.99-.57,4.07,4.07,0,0,1-.27-1.68V14.19q0-1.95,1.29-1.95a.8931.8931,0,0,1,.915.525,3.5026,3.5026,0,0,1,.225,1.365Z" transform="translate(0 0)"></path><polygon points="130.845 23.46 128.685 7.74 120.825 7.74 120.825 33.51 125.475 33.51 125.475 14.94 128.625 33.51 133.245 33.51 136.215 14.94 136.215 33.51 140.925 33.51 140.925 7.74 133.005 7.74 130.845 23.46"></polygon><path d="M91.965,18.36a8.3137,8.3137,0,0,0,.57-3.42,17.8511,17.8511,0,0,0-.36-3.945,4.25,4.25,0,0,0-1.395-2.4,4.4734,4.4734,0,0,0-2.925-.855h-7.92V33.51h5.22V21.75a2.7909,2.7909,0,0,1,1.53.3q.42.3.42,1.38V33.51h5.04l.06-9.75a5.135,5.135,0,0,0-.525-2.52,2.3847,2.3847,0,0,0-1.695-1.17A3.2021,3.2021,0,0,0,91.965,18.36Zm-5.55-1.08h-1.23V12.51h1.2a1.07,1.07,0,0,1,.69.195,1.1368,1.1368,0,0,1,.33.705,9.5553,9.5553,0,0,1,.09,1.53Q87.495,17.28,86.415,17.28Z" transform="translate(0 0)"></path><path d="M66.585,7.74h-6.81V33.51h5.07V23.31h2.1q3.03,0,4.2-1.95a11.4506,11.4506,0,0,0,1.17-5.79,10.6109,10.6109,0,0,0-1.32-5.835A4.8905,4.8905,0,0,0,66.585,7.74Zm.495,9.585a1.64,1.64,0,0,1-.57.99,2.1909,2.1909,0,0,1-1.365.345h-.3V12.42h.57a1.4512,1.4512,0,0,1,1.44.72,5.5773,5.5773,0,0,1,.36,2.34A9.5819,9.5819,0,0,1,67.08,17.325Z" transform="translate(0 0)"></path></g></g></g></g></svg>