<svg xmlns="http://www.w3.org/2000/svg" id="aa3b4746-edca-4620-af5f-c9fefa8cc7c0" data-name="Layer 1" width="41.5" height="48.3951" viewBox="0 0 41.5 48.3951"><path d="M39.25,36.7753V30.75H21.75v-4.6H32.1934a8.0445,8.0445,0,1,0-.8252-16.0449,6.65,6.65,0,0,0-6.33-4.6485h-.0088a6.4784,6.4784,0,0,0-2.0049.3179,8.63,8.63,0,0,0-9.6015-4.72,8.7291,8.7291,0,0,0-6.75,8.499,8.6384,8.6384,0,0,0,.22,1.9351A7.3934,7.3934,0,0,0,8.124,26.15H20.25v4.6H2.75v6.2515a3.2751,3.2751,0,1,0,1.5-.2262V32.25H20.2466L20.2,42.8616a3.2347,3.2347,0,1,0,1.5-.0312l.0467-10.58H37.75v4.7515a3.2751,3.2751,0,1,0,1.5-.2262ZM8.686,11.9263a7.1277,7.1277,0,0,1,4.2188-8.9908,6.8534,6.8534,0,0,1,2.3667-.4213,7.0335,7.0335,0,0,1,6.57,4.5781.8038.8038,0,0,0,.4439.4658.7916.7916,0,0,0,.6425-.0127,5.006,5.006,0,0,1,2.11-.4731,5.0982,5.0982,0,0,1,4.9531,4.0991.8008.8008,0,0,0,.3438.5156.7833.7833,0,0,0,.6005.1177,6.4208,6.4208,0,1,1,1.2579,12.7295H8.0981a5.7678,5.7678,0,0,1-.144-11.5313.7991.7991,0,0,0,.6377-.3515A.8154.8154,0,0,0,8.686,11.9263ZM5.75,40A1.75,1.75,0,1,1,4,38.25,1.7522,1.7522,0,0,1,5.75,40Zm17,6A1.75,1.75,0,1,1,21,44.25,1.7522,1.7522,0,0,1,22.75,46ZM39,41.75A1.75,1.75,0,1,1,40.75,40,1.7522,1.7522,0,0,1,39,41.75Z" transform="translate(-0.75 -0.8549)"></path></svg>