<svg xmlns="http://www.w3.org/2000/svg" id="ef6883b5-1426-4f0e-828a-e4756e3de1fc" data-name="Layer 1" width="41.5493" height="45.8421" viewBox="0 0 41.5493 45.8421"><path d="M5.25,47.75h9.5V30.25H5.25Zm1.5-16h6.5v14.5H6.75Z" transform="translate(-1.2007 -1.9079)"></path><path d="M19.25,47.75h9.5V20.25h-9.5Zm1.5-26h6.5v24.5h-6.5Z" transform="translate(-1.2007 -1.9079)"></path><path d="M33.25,14.25v33.5h9.5V14.25Zm8,32h-6.5V15.75h6.5Z" transform="translate(-1.2007 -1.9079)"></path><path d="M34.9141,9.5654a.75.75,0,0,0,1.3671.6182l2.9405-6.5054a.7506.7506,0,0,0-.6084-1.0552l-7.02-.7114a.7581.7581,0,0,0-.8213.67.75.75,0,0,0,.6709.8218l5.0973.5168L1.2007,18.7085,1.78,20.0923,36.7748,5.4484Z" transform="translate(-1.2007 -1.9079)"></path></svg>